<svg viewBox="0 0 1024 1024" version="1.1" xmlns="http://www.w3.org/2000/svg">
    <path d="M349.52 573.13H168.85V168.67H573.3v404.46h-33.12a36 36 0 0 0 0 72h53.12a52.06 52.06 0 0 0 52-52V148.67a52.06 52.06 0 0 0-52-52H148.85a52.06 52.06 0 0 0-52 52v434.55a62 62 0 0 0 61.9 61.9h190.77a36 36 0 0 0 0-72z"/>
    <path d="M906.85 411.23h-202.8a36 36 0 0 0 0 72h182.8v404.46H482.39V483.23h29.66a36 36 0 0 0 0-72h-49.66a52.06 52.06 0 0 0-52 52v444.46a52.06 52.06 0 0 0 52 52h444.46a52.06 52.06 0 0 0 52-52V463.23a52.06 52.06 0 0 0-52-52z"
    />
</svg>