<svg viewBox="0 0 1024 1024" version="1.1" xmlns="http://www.w3.org/2000/svg">
    <path d="M381.187592 511.934093m20.113259-20.113259l0 0q20.11326-20.11326 40.226519 0l60.339779 60.339779q20.11326 20.11326 0 40.226519l0 0q-20.11326 20.11326-40.226519 0l-60.339779-60.339779q-20.11326-20.11326 0-40.226519Z"
    />
    <path d="M481.819664 612.683526m-20.11326-20.113259l0 0q-20.11326-20.11326 0-40.226519l120.679557-120.679558q20.11326-20.11326 40.22652 0l0 0q20.11326 20.11326 0 40.22652l-120.679558 120.679557q-20.11326 20.11326-40.226519 0Z"
    />
    <path d="M725.333333 213.333333h-426.666666a85.333333 85.333333 0 0 0-85.333334 85.333334v426.666666a85.333333 85.333333 0 0 0 85.333334 85.333334h426.666666a85.333333 85.333333 0 0 0 85.333334-85.333334v-426.666666a85.333333 85.333333 0 0 0-85.333334-85.333334z m28.444445 497.777778a42.666667 42.666667 0 0 1-42.666667 42.666667H312.888889A42.666667 42.666667 0 0 1 270.222222 711.111111V312.888889A42.666667 42.666667 0 0 1 312.888889 270.222222h398.222222a42.666667 42.666667 0 0 1 42.666667 42.666667z"
    />
</svg>