<svg viewBox="0 0 1024 1024" version="1.1" xmlns="http://www.w3.org/2000/svg">
    <path d="M744.96 749.5936c39.5776 0 71.68-32.5888 71.68-72.7552 0-16.6144-20.6336-49.2032-61.9264-97.8176a12.8 12.8 0 0 0-19.5072 0c-41.2928 48.6144-61.9264 81.2032-61.9264 97.792 0 40.192 32.1024 72.7808 71.68 72.7808z"/>
    <path d="M448.768 140.0064a15.36 15.36 0 0 1 19.6352-1.4592l2.0992 1.792 70.7328 73.1648a15.36 15.36 0 0 1-19.968 23.168l-2.1248-1.792-70.7328-73.1648a15.36 15.36 0 0 1 0.3584-21.7088z"
    />
    <path d="M388.4032 427.1104l-82.56 86.3488a23.296 23.296 0 0 0 0.1024 32.256l109.952 113.7152a23.296 23.296 0 0 0 33.4848 0l151.168-156.3392a23.296 23.296 0 0 0-10.8288-38.7072l-172.9024-45.312c-10.24-2.688-21.12 0.384-28.416 8.0384z"
    />
    <path d="M724.0704 402.5856l-208.0256-215.1168L223.1296 490.3424a59.0336 59.0336 0 0 0 0 82.0736l165.6064 171.264c22.656 23.424 60.032 24.0384 83.456 1.3824l251.904-260.4032a59.0336 59.0336 0 0 0 0-82.0736zM245.1968 511.6928l270.848-280.064 185.9584 192.3072a28.3136 28.3136 0 0 1 0 39.3472L450.816 722.9696a28.3136 28.3136 0 0 1-40.0384-0.6656l-165.6064-171.264a28.3136 28.3136 0 0 1 0-39.3472zM844.8 813.952a19.2 19.2 0 0 1 2.6112 38.2208l-2.6112 0.1792H179.2a19.2 19.2 0 0 1-2.6112-38.2208L179.2 813.952h665.6z"
    />
</svg>