<svg viewBox="0 0 1024 1024" version="1.1" xmlns="http://www.w3.org/2000/svg">
    <path d="M369.777778 199.111111m28.444444 0l0 0q28.444444 0 28.444445 28.444445l0 85.333333q0 28.444444-28.444445 28.444444l0 0q-28.444444 0-28.444444-28.444444l0-85.333333q0-28.444444 28.444444-28.444445Z"
    />
    <path d="M597.333333 199.111111m28.444445 0l0 0q28.444444 0 28.444444 28.444445l0 85.333333q0 28.444444-28.444444 28.444444l0 0q-28.444444 0-28.444445-28.444444l0-85.333333q0-28.444444 28.444445-28.444445Z"
    />
    <path d="M682.666667 412.444444m0 21.333334l0 0q0 21.333333-21.333334 21.333333l-298.666666 0q-21.333333 0-21.333334-21.333333l0 0q0-21.333333 21.333334-21.333334l298.666666 0q21.333333 0 21.333334 21.333334Z"
    />
    <path d="M682.666667 526.222222m0 21.333334l0 0q0 21.333333-21.333334 21.333333l-298.666666 0q-21.333333 0-21.333334-21.333333l0 0q0-21.333333 21.333334-21.333334l298.666666 0q21.333333 0 21.333334 21.333334Z"
    />
    <path d="M540.444444 632.888889m0 21.333333l0 0q0 21.333333-21.333333 21.333334l-156.444444 0q-21.333333 0-21.333334-21.333334l0 0q0-21.333333 21.333334-21.333333l156.444444 0q21.333333 0 21.333333 21.333333Z"
    />
    <path d="M739.555556 256H284.444444a85.333333 85.333333 0 0 0-85.333333 85.333333v398.222223a85.333333 85.333333 0 0 0 85.333333 85.333333h455.111112a85.333333 85.333333 0 0 0 85.333333-85.333333V341.333333a85.333333 85.333333 0 0 0-85.333333-85.333333z m28.444444 469.333333a42.666667 42.666667 0 0 1-42.666667 42.666667h-426.666666A42.666667 42.666667 0 0 1 256 725.333333v-369.777777a42.666667 42.666667 0 0 1 42.666667-42.666667h426.666666a42.666667 42.666667 0 0 1 42.666667 42.666667z"
    />
</svg>