<svg viewBox="0 0 1024 1024" version="1.1" xmlns="http://www.w3.org/2000/svg">
    <path d="M369.777778 199.111111m28.444444 0l0 0q28.444444 0 28.444445 28.444445l0 85.333333q0 28.444444-28.444445 28.444444l0 0q-28.444444 0-28.444444-28.444444l0-85.333333q0-28.444444 28.444444-28.444445Z"
    />
    <path d="M597.333333 199.111111m28.444445 0l0 0q28.444444 0 28.444444 28.444445l0 85.333333q0 28.444444-28.444444 28.444444l0 0q-28.444444 0-28.444445-28.444444l0-85.333333q0-28.444444 28.444445-28.444445Z"
    />
    <path d="M567.182222 426.666667h-120.32a30.151111 30.151111 0 1 0 0 60.017777h78.222222l-46.648888 142.222223a28.444444 28.444444 0 0 0 19.626666 37.546666 19.057778 19.057778 0 0 0 9.102222 1.422223 30.151111 30.151111 0 0 0 28.444445-21.048889l60.017778-180.337778a28.444444 28.444444 0 0 0-4.551111-28.444445 31.288889 31.288889 0 0 0-24.177778-11.946666z m0 0"
    />
    <path d="M739.555556 256H284.444444a85.333333 85.333333 0 0 0-85.333333 85.333333v398.222223a85.333333 85.333333 0 0 0 85.333333 85.333333h455.111112a85.333333 85.333333 0 0 0 85.333333-85.333333V341.333333a85.333333 85.333333 0 0 0-85.333333-85.333333z m28.444444 469.333333a42.666667 42.666667 0 0 1-42.666667 42.666667h-426.666666A42.666667 42.666667 0 0 1 256 725.333333v-369.777777a42.666667 42.666667 0 0 1 42.666667-42.666667h426.666666a42.666667 42.666667 0 0 1 42.666667 42.666667z"
    />
</svg>