<svg viewBox="0 0 1024 1024" version="1.1" xmlns="http://www.w3.org/2000/svg">
    <path d="M227.555556 398.222222m14.222222 0l0 0q14.222222 0 14.222222 14.222222l0 199.111112q0 14.222222-14.222222 14.222222l0 0q-14.222222 0-14.222222-14.222222l0-199.111112q0-14.222222 14.222222-14.222222Z"/>
    <path d="M227.555556 398.222222m14.222222 0l0 0q14.222222 0 14.222222 14.222222l0 199.111112q0 14.222222-14.222222 14.222222l0 0q-14.222222 0-14.222222-14.222222l0-199.111112q0-14.222222 14.222222-14.222222Z"/>
    <path d="M824.888889 312.888889H199.111111a85.333333 85.333333 0 0 0-85.333333 85.333333v227.555556a85.333333 85.333333 0 0 0 85.333333 85.333333h625.777778a85.333333 85.333333 0 0 0 85.333333-85.333333v-227.555556a85.333333 85.333333 0 0 0-85.333333-85.333333z m28.444444 298.666667a42.666667 42.666667 0 0 1-42.666666 42.666666h-597.333334A42.666667 42.666667 0 0 1 170.666667 611.555556v-199.111112A42.666667 42.666667 0 0 1 213.333333 369.777778h597.333334a42.666667 42.666667 0 0 1 42.666666 42.666666z"/>
</svg>