<svg viewBox="0 0 1024 1024" version="1.1" xmlns="http://www.w3.org/2000/svg">
    <path d="M704.43 614.27l24.22 142.1a51.31 51.31 0 0 1-5.2 33.13 47.06 47.06 0 0 1-6.27 8.93 50.45 50.45 0 0 1-39.51 19.12c-7.65 0-15.29-1.91-23.57-6.37l-128.73-67.55a25.07 25.07 0 0 0-12.74-3.18 37.68 37.68 0 0 0-12.75 2.55L371.8 811.18a45.9 45.9 0 0 1-24.21 6.37 54.2 54.2 0 0 1-40.14-18.48c-10.2-11.47-14-26.76-11.47-42.05l24.84-142.75a28.52 28.52 0 0 0-8.29-24.21L209.31 490a51 51 0 0 1-13.38-53.53 52.47 52.47 0 0 1 33.88-33.71 53.53 53.53 0 0 1 5.53-1.48c0.87-0.19 1.75-0.35 2.63-0.5l142.74-21c8.93-1.28 17.21-7 21-14.66l63.72-130a52.08 52.08 0 0 1 93 0l63.72 130a27.94 27.94 0 0 0 21 14.66L786 400.8a53 53 0 0 1 42.06 35.06 51.94 51.94 0 0 1-12.75 53.51L712.72 590.06c-7.01 6.37-9.56 15.29-8.29 24.21z"/>
    <path d="M629.2 544.08a30.58 30.58 0 0 1-29.36-15.52l-33-58.93a30.59 30.59 0 1 1 53.36-29.91l33 58.93a30.6 30.6 0 0 1-24 45.43z"/>
    <path d="M331.82 337a20.39 20.39 0 0 0 15.34-29.15l-3.56-7.26a39.76 39.76 0 0 0-71.05 0l-6.79 13.85A20.39 20.39 0 0 0 287 343.58zM737 343.58a20.39 20.39 0 0 0 21.28-29.15l-6.79-13.85a39.76 39.76 0 0 0-71.05 0l-3.56 7.26A20.39 20.39 0 0 0 692.17 337zM869.19 571.61l78.34-76.88a39.67 39.67 0 0 0 9.73-40.88 40.44 40.44 0 0 0-32.11-26.76l-18.9-2.78a20.4 20.4 0 0 0-23.34 20.94 96.21 96.21 0 0 1-28.4 71.44l-98.34 96.51a20.39 20.39 0 0 0-5.82 18l11.48 67.38a20.42 20.42 0 0 0 10.63 14.63l52 27.27a37.25 37.25 0 0 0 18 4.86 38.51 38.51 0 0 0 30.17-14.6c7.78-8.75 10.7-20.43 8.75-32.11L862.86 590.1a20.5 20.5 0 0 1 6.33-18.49zM274.9 631.32l-11.68 67.12a20.43 20.43 0 0 1-10.5 14.5l-9.09 4.84L201 740.46a35.07 35.07 0 0 1-18.48 4.86 41.4 41.4 0 0 1-30.66-14.11c-7.79-8.76-10.71-20.43-8.76-32.12l19-109a21.84 21.84 0 0 0-6.32-18.5L77 495.21a38.9 38.9 0 0 1-10.23-40.87 40.22 40.22 0 0 1 32.12-27.25l18.92-2.79a20.39 20.39 0 0 1 23.34 21 95.08 95.08 0 0 0 29.59 72.61L269 613.17a20.41 20.41 0 0 1 5.9 18.15z"/>
</svg>