<svg viewBox="0 0 1024 1024" version="1.1" xmlns="http://www.w3.org/2000/svg">
    <path d="M483.555556 341.333333m28.444444 0l0 0q28.444444 0 28.444444 28.444445l0 142.222222q0 28.444444-28.444444 28.444444l0 0q-28.444444 0-28.444444-28.444444l0-142.222222q0-28.444444 28.444444-28.444445Z"
    />
    <path d="M471.676947 511.814857m20.165847-20.060534l0 0q20.165847-20.060534 40.226382 0.105312l60.181603 60.497541q20.060534 20.165847-0.105313 40.226382l0 0q-20.165847 20.060534-40.226381-0.105313l-60.181603-60.497541q-20.060534-20.165847 0.105312-40.226381Z"
    />
    <path d="M512 170.666667a341.333333 341.333333 0 1 0 341.333333 341.333333A341.333333 341.333333 0 0 0 512 170.666667z m0 625.777777a284.444444 284.444444 0 1 1 284.444444-284.444444 284.444444 284.444444 0 0 1-284.444444 284.444444z"
    />
</svg>