<svg viewBox="0 0 1024 1024" version="1.1" xmlns="http://www.w3.org/2000/svg">
    <path d="M469.333333 341.333333m28.444445 0l56.888889 0q28.444444 0 28.444444 28.444445l0 0q0 28.444444-28.444444 28.444444l-56.888889 0q-28.444444 0-28.444445-28.444444l0 0q0-28.444444 28.444445-28.444445Z"/>
    <path d="M440.888889 625.777778m28.444444 0l56.888889 0q28.444444 0 28.444445 28.444444l0 0q0 28.444444-28.444445 28.444445l-56.888889 0q-28.444444 0-28.444444-28.444445l0 0q0-28.444444 28.444444-28.444444Z"
    />
    <path d="M341.333333 227.555556h-56.888889a85.333333 85.333333 0 0 0-85.333333 85.333333v398.222222a85.333333 85.333333 0 0 0 85.333333 85.333333h56.888889a85.333333 85.333333 0 0 0 85.333334-85.333333V312.888889a85.333333 85.333333 0 0 0-85.333334-85.333333z m28.444445 469.333333a42.666667 42.666667 0 0 1-42.666667 42.666667h-28.444444A42.666667 42.666667 0 0 1 256 696.888889v-369.777778a42.666667 42.666667 0 0 1 42.666667-42.666667h28.444444a42.666667 42.666667 0 0 1 42.666667 42.666667zM739.555556 227.555556h-56.888889a85.333333 85.333333 0 0 0-85.333334 85.333333v398.222222a85.333333 85.333333 0 0 0 85.333334 85.333333h56.888889a85.333333 85.333333 0 0 0 85.333333-85.333333V312.888889a85.333333 85.333333 0 0 0-85.333333-85.333333z m28.444444 469.333333a42.666667 42.666667 0 0 1-42.666667 42.666667h-28.444444a42.666667 42.666667 0 0 1-42.666667-42.666667v-369.777778a42.666667 42.666667 0 0 1 42.666667-42.666667h28.444444a42.666667 42.666667 0 0 1 42.666667 42.666667z"
    />
</svg>