<svg viewBox="0 0 1024 1024" version="1.1" xmlns="http://www.w3.org/2000/svg">
    <path d="M768 248.888889H398.222222a42.666667 42.666667 0 0 0-42.666666 42.666667v85.333333a42.666667 42.666667 0 0 0 42.666666 42.666667h369.777778a42.666667 42.666667 0 0 0 42.666667-42.666667v-85.333333a42.666667 42.666667 0 0 0-42.666667-42.666667z m-14.222222 100.977778a12.8 12.8 0 0 1-12.8 12.8H426.666667a12.8 12.8 0 0 1-12.8-12.8v-31.288889a12.8 12.8 0 0 1 12.8-12.8h312.888889a12.8 12.8 0 0 1 12.8 12.8zM252.586667 341.333333h35.555555v398.222223H252.586667zM750.364444 478.151111h-277.333333a32.142222 32.142222 0 0 0-31.857778 32.142222v64a32.142222 32.142222 0 0 0 32.142223 32.142223h277.333333a32.142222 32.142222 0 0 0 32.142222-31.857778v-64.284445a32.142222 32.142222 0 0 0-32.426667-32.142222zM739.555556 553.813333a9.671111 9.671111 0 0 1-9.671112 9.671111h-236.657777a9.671111 9.671111 0 0 1-9.671111-9.671111v-23.324444a9.671111 9.671111 0 0 1 9.671111-9.671111h236.657777a9.671111 9.671111 0 0 1 9.671112 9.671111zM750.364444 647.111111h-277.333333a32.142222 32.142222 0 0 0-31.857778 32.142222v64a32.142222 32.142222 0 0 0 32.142223 32.142223h277.333333a32.142222 32.142222 0 0 0 32.142222-31.857778v-64.284445a32.142222 32.142222 0 0 0-32.426667-32.142222zM739.555556 722.773333a9.671111 9.671111 0 0 1-9.671112 9.671111h-236.657777a9.671111 9.671111 0 0 1-9.671111-9.671111v-23.324444a9.671111 9.671111 0 0 1 9.671111-9.671111h236.657777a9.671111 9.671111 0 0 1 9.671112 9.671111z"
    />
    <path d="M469.333333 704V739.555556h-199.111111v-35.555556zM469.333333 524.515556v35.555555h-199.111111v-35.555555z"
    />
    <path d="M270.222222 312.888889m-56.888889 0a56.888889 56.888889 0 1 0 113.777778 0 56.888889 56.888889 0 1 0-113.777778 0Z"
    />
</svg>