<svg viewBox="0 0 1024 1024" version="1.1" xmlns="http://www.w3.org/2000/svg">
    <path d="M371.2 455.111111L483.555556 343.893333v262.826667a28.444444 28.444444 0 1 0 56.888888 0v-262.826667L652.8 455.111111a28.444444 28.444444 0 0 0 40.106667-40.106667L532.195556 256a28.444444 28.444444 0 0 0-40.106667 0l-160.995556 160.995556A28.444444 28.444444 0 0 0 371.2 455.111111zM739.555556 663.608889a28.444444 28.444444 0 0 0-28.444445 28.444444v28.444445H312.888889v-28.444445a28.444444 28.444444 0 0 0-56.888889 0v56.888889a28.444444 28.444444 0 0 0 28.444444 28.444445h455.111112a28.444444 28.444444 0 0 0 28.444444-28.444445v-56.888889a28.444444 28.444444 0 0 0-28.444444-28.444444z"
    />
</svg>