<svg viewBox="0 0 1024 1024" version="1.1" xmlns="http://www.w3.org/2000/svg">
    <path d="M241.063 597.57l-7.48 210.899-12.468 26.829 9.974 26.748 71.001 17.273 108.612 7.422 186.678-136.776-9.669-100.064c-26.348-34.887-45.554-52.33-57.616-52.33l-289.032-0.001zM221.717 188.906c-15.415-8.653-33.199-13.587-52.135-13.587C110.672 175.319 62.916 223.075 62.916 281.985c0 45.536 28.534 84.408 68.698 99.711"
          fill="#9C785E"/>
    <path d="M131.61 403.035c-2.525 0-5.092-0.451-7.592-1.403-23.986-9.139-44.484-25.115-59.279-46.201-15.149-21.592-23.157-46.99-23.157-73.446 0-70.58 57.421-128 128-128 21.92 0 43.559 5.643 62.577 16.318 10.274 5.767 13.928 18.771 8.161 29.045-5.768 10.274-18.772 13.927-29.045 8.161C198.621 200.406 184.204 196.652 169.583 196.652c-47.053 0-85.333 38.28-85.333 85.333 0 35.191 22.087 67.25 54.96 79.775 11.01 4.195 16.535 16.521 12.34 27.531-3.243 8.511-11.345 13.744-19.94 13.744z"
          fill="#333333"/>
    <path d="M676.857 381.707c40.178-15.295 68.726-54.175 68.726-99.722 0-58.91-47.756-106.667-106.667-106.667-18.557 0-36.006 4.739-51.206 13.072"
          fill="#9C785E"/>
    <path d="M676.861 403.046c-8.599 0-16.7-5.235-19.941-13.749-4.191-11.011 1.336-23.335 12.348-27.527 32.887-12.52 54.982-44.583 54.982-79.784C724.25 234.932 685.969 196.652 638.916 196.652c-14.326 0-28.486 3.612-40.949 10.445-10.332 5.664-23.299 1.88-28.962-8.451-5.664-10.332-1.881-23.298 8.45-28.962 18.732-10.27 39.985-15.699 61.461-15.699 70.58 0 128 57.421 128 128 0 26.462-8.011 51.865-23.167 73.46-14.801 21.089-35.307 37.064-59.302 46.199a21.278 21.278 0 0 1-7.586 1.402z"
          fill="#333333"/>
    <path d="M404.249 388.652m-256 0a256 256 0 1 0 512 0 256 256 0 1 0-512 0Z" fill="#9C785E"/>
    <path d="M404.249 665.985c-74.078 0-143.723-28.848-196.104-81.229S126.916 462.73 126.916 388.652s28.848-143.723 81.229-196.104c52.382-52.381 122.026-81.229 196.104-81.229 74.079 0 143.723 28.848 196.105 81.229 52.381 52.381 81.229 122.026 81.229 196.104s-28.848 143.723-81.229 196.104c-52.382 52.381-122.026 81.229-196.105 81.229z m0-512c-62.682 0-121.612 24.409-165.935 68.732S169.583 325.97 169.583 388.652s24.409 121.612 68.732 165.935c44.323 44.322 103.253 68.732 165.935 68.732s121.612-24.41 165.935-68.732c44.322-44.323 68.732-103.253 68.732-165.935s-24.41-121.612-68.732-165.935c-44.324-44.322-103.254-68.732-165.936-68.732z"
          fill="#333333"/>
    <path d="M468.249 217.985C527.16 217.985 574.916 265.742 574.916 324.652c0 38.885-20.808 72.911-51.896 91.55 4.584 13.174 7.074 27.327 7.074 42.063 0 70.692-57.308 128-128 128s-128-57.308-128-128c0-15.562 2.777-30.476 7.863-44.272-29.129-19.041-48.374-51.944-48.374-89.341 0-58.91 47.756-106.667 106.667-106.667 24.014 0 46.174 7.935 64.001 21.327 17.825-13.391 39.985-21.327 63.998-21.327z"
          fill="#F1D6BE"/>
    <path d="M402.094 607.597c-82.343 0-149.333-66.99-149.333-149.333 0-12.302 1.484-24.426 4.423-36.21-28.392-24.174-44.934-59.531-44.934-97.402 0-70.579 57.421-128 128-128 22.776 0 44.626 5.876 64.001 17.113C423.622 202.53 445.473 196.652 468.249 196.652c70.58 0 128 57.421 128 128 0 22.515-5.934 44.665-17.16 64.056a128.716 128.716 0 0 1-31.383 36.297 149.604 149.604 0 0 1 3.721 33.26c0 82.342-66.991 149.332-149.333 149.332z m-61.845-368.278C293.197 239.319 254.916 277.599 254.916 324.652c0 28.915 14.472 55.638 38.713 71.484l14.219 9.295-5.875 15.94c-4.344 11.784-6.546 24.197-6.546 36.894 0 58.816 47.85 106.667 106.666 106.667 58.816 0 106.666-47.851 106.666-106.667 0-12.03-1.981-23.823-5.888-35.052l-5.702-16.386 14.88-8.921c26.006-15.592 41.532-42.976 41.532-73.253 0-47.053-38.28-85.333-85.333-85.333-18.639 0-36.338 5.896-51.185 17.049l-12.813 9.626-12.814-9.625c-14.847-11.155-32.548-17.051-51.187-17.051z"
          fill="#333333"/>
    <path d="M631.976 917.263c120.399 12.066 176.863-29.479 169.392-124.632-7.471-95.154-7.471-188.698 0-280.631l29.021-40.705 55.545 12.8v48.509l0.037 43.633c64.614 38.435 92.877 23.891 84.789-43.633-8.088-67.523-22.141-104.456-42.159-110.798L843.304 388.652l-79.344 33.154-48.549 100.08-0.106 241.223-15.598 63.415-67.73 21.236v69.503z"
          fill="#9C785E"/>
    <path d="M335.061579 354.812035a21.333 21.333 0 1 0 6.835457-42.114892 21.333 21.333 0 1 0-6.835457 42.114892Z"
          fill="#333333"/>
    <path d="M338.471 361.487c-15.292 0-27.733-12.441-27.733-27.733s12.441-27.733 27.733-27.733 27.733 12.441 27.733 27.733c0.001 15.292-12.44 27.733-27.733 27.733z m0-42.667c-8.234 0-14.934 6.699-14.934 14.934 0 8.234 6.699 14.933 14.934 14.933s14.934-6.699 14.934-14.933-6.699-14.934-14.934-14.934z"
          fill="#333333"/>
    <path d="M466.472 333.754m-21.333 0a21.333 21.333 0 1 0 42.666 0 21.333 21.333 0 1 0-42.666 0Z" fill="#333333"
    />
    <path d="M466.471 361.487c-15.292 0-27.733-12.441-27.733-27.733s12.441-27.733 27.733-27.733 27.733 12.441 27.733 27.733c0.001 15.292-12.44 27.733-27.733 27.733z m0-42.667c-8.234 0-14.934 6.699-14.934 14.934 0 8.234 6.699 14.933 14.934 14.933s14.934-6.699 14.934-14.933-6.699-14.934-14.934-14.934z"
          fill="#333333"/>
    <path d="M560.002 608.826c42.491 31.042 70.094 81.247 70.094 137.9V917.392H343.96" fill="#9C785E"/>
    <path d="M651.429 938.725H343.96c-11.782 0-21.333-9.551-21.333-21.333s9.551-21.333 21.333-21.333h264.803V746.726c0-24.249-5.623-47.37-16.712-68.721-10.593-20.395-26.026-38.359-44.634-51.954-9.514-6.95-11.592-20.297-4.641-29.811 6.948-9.513 20.295-11.594 29.811-4.641 23.895 17.457 43.718 40.535 57.328 66.739 14.074 27.1 21.514 57.663 21.514 88.387v192zM233.583 838.461c-11.782 0-21.333-9.551-21.333-21.333V580.652c0-11.782 9.551-21.333 21.333-21.333S254.916 568.87 254.916 580.652v236.476c0 11.782-9.551 21.333-21.333 21.333z"
          fill="#333333"/>
    <path d="M404.249 869.093c-11.782 0-21.333-9.551-21.333-21.333v-146.38c0-11.782 9.551-21.333 21.333-21.333s21.333 9.551 21.333 21.333v146.381c0.001 11.782-9.55 21.332-21.333 21.332zM318.916 843.488c-11.782 0-21.333-9.551-21.333-21.333V646.74c0-11.782 9.551-21.333 21.333-21.333 11.782 0 21.333 9.551 21.333 21.333v175.415c0 11.782-9.551 21.333-21.333 21.333z"
          fill="#333333"/>
    <path d="M233.016 819.379c-35.346 0-64 19.103-64 42.667s28.654 42.667 64 42.667c15.227 0 29.211-3.545 40.198-9.464"
          fill="#9C785E"/>
    <path d="M233.016 926.045c-47.851 0-85.333-28.111-85.333-63.999s37.483-64 85.333-64c11.782 0 21.333 9.551 21.333 21.333s-9.551 21.333-21.333 21.333c-26.045 0-42.667 12.636-42.667 21.334s16.621 21.333 42.667 21.333c11.124 0 21.807-2.455 30.08-6.912 10.373-5.586 23.311-1.709 28.899 8.663 5.588 10.373 1.709 23.312-8.663 28.899-14.591 7.861-31.99 12.016-50.316 12.016z"
          fill="#333333"/>
    <path d="M340.461 832.071c-35.346 0-64 19.102-64 42.667s28.654 42.667 64 42.667 63.788-19.103 63.788-42.667v-60.588"
          fill="#9C785E"/>
    <path d="M340.461 938.737c-47.851 0-85.333-28.111-85.333-63.999s37.483-64 85.333-64c11.782 0 21.333 9.551 21.333 21.333s-9.551 21.333-21.333 21.333c-26.045 0-42.666 12.636-42.666 21.334s16.621 21.333 42.666 21.333c25.916 0 42.455-12.635 42.455-21.333v-60.589c0-11.782 9.551-21.333 21.333-21.333s21.333 9.551 21.333 21.333v60.589c0.001 35.888-37.389 63.999-85.121 63.999zM715.304 815.08c-11.782 0-21.333-9.551-21.333-21.333V515.943c0-82.343 66.99-149.333 149.333-149.333s149.333 66.991 149.333 149.333v38.607c0 11.782-9.551 21.333-21.333 21.333s-21.333-9.551-21.333-21.333v-38.607c0-58.816-47.851-106.667-106.667-106.667s-106.667 47.85-106.667 106.667v277.804c0 11.782-9.55 21.333-21.333 21.333z"
          fill="#333333"/>
    <path d="M672.726 856.631h-42.667v-42.666h42.667c11.764 0 21.334-9.57 21.334-21.334v-42.666h42.666v42.666c0 35.29-28.71 64-64 64zM928.6 618.903c-35.289 0-63.999-28.71-63.999-64 0-11.782 9.551-21.333 21.333-21.333s21.333 9.551 21.333 21.333c0 11.764 9.57 21.334 21.333 21.334 11.764 0 21.334-9.57 21.334-21.334 0-11.782 9.551-21.333 21.333-21.333s21.333 9.551 21.333 21.333c0 35.29-28.71 64-64 64z"
          fill="#333333"/>
    <path d="M800.637 847.857c-11.782 0-21.333-9.551-21.333-21.333V515.943c0-35.29 28.71-64 64-64 35.289 0 63.999 28.71 63.999 64l-0.001 35.08-0.036 2.82c-0.15 11.688-9.673 21.06-21.326 21.06l-0.279-0.001c-11.781-0.151-21.209-9.824-21.059-21.605l0.035-2.685v-34.669c0-11.764-9.57-21.333-21.333-21.333-11.764 0-21.334 9.57-21.334 21.333v310.581c0.001 11.782-9.55 21.333-21.333 21.333z"
          fill="#333333"/>
    <path d="M715.411 938.596h-85.334v-42.666h85.334c35.289 0 64-28.711 64-64v-42.667h42.666v42.667c0 58.817-47.85 106.666-106.666 106.666z"
          fill="#333333"/>
    <path d="M423.501 471.295m-12.8 0a12.8 12.8 0 1 0 25.6 0 12.8 12.8 0 1 0-25.6 0Z" fill="#333333"/>
    <path d="M380.835 471.295m-12.8 0a12.8 12.8 0 1 0 25.6 0 12.8 12.8 0 1 0-25.6 0Z" fill="#333333"/>
</svg>